<svg xmlns="http://www.w3.org/2000/svg" viewBox="0 0 320 180" shape-rendering="crispEdges">
  <rect width="320" height="180" fill="#0b1230"/>
  <rect y="96" width="320" height="84" fill="#241c52"/>
  <path d="M0 124h24v-6h20v8h22v-10h18v12h20v-8h24v6h20v-12h22v10h18v-8h28v16h20v-10h18v6h18v-12h24v8h22v-6h20v98H0z" fill="#4d3a87"/>
  <path d="M0 132h22v-8h18v10h24v-6h20v12h22v-8h20v6h24v-10h18v14h20v-8h18v10h24v-6h22v8h18v-10h20v12h30v76H0z" fill="#6d55b1"/>
  <rect x="20" y="98" width="74" height="6" fill="#7cf0d9"/>
  <rect x="226" y="84" width="74" height="6" fill="#ffd46d"/>
  <rect x="28" y="92" width="18" height="8" fill="#cf7d48"/>
  <rect x="24" y="100" width="26" height="10" fill="#f1b06d"/>
  <rect x="48" y="90" width="22" height="4" fill="#f1b06d"/>
  <rect x="270" y="78" width="18" height="8" fill="#4fd6ff"/>
  <rect x="266" y="86" width="26" height="10" fill="#91f3ff"/>
  <rect x="248" y="76" width="22" height="4" fill="#91f3ff"/>
  <circle cx="160" cy="70" r="10" fill="#ffe79a"/>
  <rect x="88" y="22" width="144" height="14" fill="#131d45"/>
  <text x="160" y="33" text-anchor="middle" fill="#e9e0ff" font-family="monospace" font-size="14">ARTILLERY DUEL</text>
</svg>
